MSD_FD_states
version=1
nRows=45
nColumns=9
inDegrees=yes

# SIMM Motion File Header:
name MSD_FD_states
datacolumns 9
datarows 45
otherdata 1
range 1.12939287 1.14111217
endheader
time	/jointset/PelvisToPlatform/Block_rotation/value	/jointset/PelvisToPlatform/Block_rotation/speed	/jointset/PelvisToPlatform/Block_tx/value	/jointset/PelvisToPlatform/Block_tx/speed	/jointset/PelvisToPlatform/Block_ty/value	/jointset/PelvisToPlatform/Block_ty/speed	/forceset/muscle1/activation	/forceset/muscle1/normalized_tendon_force
      1.12939287	      7.33878682	     37.87352692	     -0.21482707	     -0.31562505	      0.20000000	     -0.00000000	      0.28561802	      0.11584372
      1.12963797	      7.34800625	     37.35651401	     -0.21490441	     -0.31543284	      0.20000000	     -0.00000000	      0.28580967	      0.11594316
      1.12988307	      7.35709875	     36.83783649	     -0.21498170	     -0.31523969	      0.20000000	     -0.00000000	      0.28600132	      0.11606509
      1.13020603	      7.36888539	     36.15175792	     -0.21508347	     -0.31498370	      0.20000000	     -0.00000000	      0.28625388	      0.11619704
      1.13044665	      7.37752264	     35.63874448	     -0.21515924	     -0.31479192	      0.20000000	     -0.00000000	      0.28644205	      0.11632917
      1.13068728	      7.38603625	     35.12406682	     -0.21523496	     -0.31459921	      0.20000000	     -0.00000000	      0.28663024	      0.11642792
      1.13098370	      7.39635351	     34.48786234	     -0.21532818	     -0.31436056	      0.20000000	     -0.00000000	      0.28686207	      0.11657906
      1.13124975	      7.40545281	     33.91471597	     -0.21541178	     -0.31414515	      0.20000000	     -0.00000000	      0.28707016	      0.11668124
      1.13151580	      7.41439936	     33.33966783	     -0.21549533	     -0.31392865	      0.20000000	     -0.00000000	      0.28727826	      0.11682707
      1.13178185	      7.42319267	     32.76259847	     -0.21557883	     -0.31371100	      0.20000000	     -0.00000000	      0.28748637	      0.11692475
      1.13204790	      7.43183218	     32.18365291	     -0.21566226	     -0.31349226	      0.20000000	     -0.00000000	      0.28769450	      0.11707550
      1.13231395	      7.44031741	     31.60268440	     -0.21574563	     -0.31327236	      0.20000000	     -0.00000000	      0.28790263	      0.11716818
      1.13258000	      7.44864781	     31.01986700	     -0.21582895	     -0.31305137	      0.20000000	     -0.00000000	      0.28811077	      0.11732432
      1.13281864	      7.45598780	     30.49537841	     -0.21590363	     -0.31285217	      0.20000000	     -0.00000000	      0.28829747	      0.11740845
      1.13305727	      7.46320244	     29.96939723	     -0.21597827	     -0.31265208	      0.20000000	     -0.00000000	      0.28848418	      0.11753276
      1.13334544	      7.47174688	     29.33215066	     -0.21606833	     -0.31240925	      0.20000000	     -0.00000000	      0.28870965	      0.11765293
      1.13363361	      7.48010737	     28.69271270	     -0.21615832	     -0.31216512	      0.20000000	     -0.00000000	      0.28893514	      0.11780975
      1.13387693	      7.48702289	     28.15099890	     -0.21623425	     -0.31195794	      0.20000000	     -0.00000000	      0.28912553	      0.11789873
      1.13412024	      7.49380642	     27.60775037	     -0.21631013	     -0.31174984	      0.20000000	     -0.00000000	      0.28931594	      0.11802548
      1.13436356	      7.50045756	     27.06288784	     -0.21638596	     -0.31154079	      0.20000000	     -0.00000000	      0.28950635	      0.11812997
      1.13469405	      7.50927906	     26.32031655	     -0.21648887	     -0.31125535	      0.20000000	     -0.00000000	      0.28976500	      0.11829828
      1.13494264	      7.51575224	     25.75983008	     -0.21656622	     -0.31103949	      0.20000000	     -0.00000000	      0.28995955	      0.11839331
      1.13519122	      7.52208591	     25.19775821	     -0.21664351	     -0.31082268	      0.20000000	     -0.00000000	      0.29015411	      0.11852212
      1.13543980	      7.52827964	     24.63402648	     -0.21672075	     -0.31060487	      0.20000000	     -0.00000000	      0.29034868	      0.11862833
      1.13576606	      7.53619572	     23.89172440	     -0.21682204	     -0.31031754	      0.20000000	     -0.00000000	      0.29060406	      0.11879632
      1.13601140	      7.54198850	     23.33166419	     -0.21689815	     -0.31010035	      0.20000000	     -0.00000000	      0.29079610	      0.11888914
      1.13625673	      7.54764369	     22.77008561	     -0.21697420	     -0.30988222	      0.20000000	     -0.00000000	      0.29098815	      0.11901559
      1.13655606	      7.55435657	     22.08275866	     -0.21706691	     -0.30961478	      0.20000000	     -0.00000000	      0.29122247	      0.11913954
      1.13682406	      7.56019221	     21.46543624	     -0.21714986	     -0.30937414	      0.20000000	     -0.00000000	      0.29143228	      0.11928480
      1.13709207	      7.56586215	     20.84620445	     -0.21723274	     -0.30913234	      0.20000000	     -0.00000000	      0.29164211	      0.11938690
      1.13736008	      7.57136589	     20.22519991	     -0.21731556	     -0.30888943	      0.20000000	     -0.00000000	      0.29185194	      0.11953477
      1.13762808	      7.57670295	     19.60229351	     -0.21739831	     -0.30864536	      0.20000000	     -0.00000000	      0.29206177	      0.11963432
      1.13789609	      7.58187283	     18.97763755	     -0.21748100	     -0.30840018	      0.20000000	     -0.00000000	      0.29227162	      0.11978468
      1.13816410	      7.58687504	     18.35108789	     -0.21756362	     -0.30815383	      0.20000000	     -0.00000000	      0.29248148	      0.11988183
      1.13843210	      7.59170910	     17.72281162	     -0.21764617	     -0.30790639	      0.20000000	     -0.00000000	      0.29269134	      0.12003445
      1.13870011	      7.59637453	     17.09265072	     -0.21772866	     -0.30765777	      0.20000000	     -0.00000000	      0.29290121	      0.12012948
      1.13896812	      7.60087084	     16.46078568	     -0.21781108	     -0.30740806	      0.20000000	     -0.00000000	      0.29311109	      0.12028403
      1.13923612	      7.60519756	     15.82704628	     -0.21789343	     -0.30715717	      0.20000000	     -0.00000000	      0.29332097	      0.12037728
      1.13950413	      7.60935420	     15.19162440	     -0.21797572	     -0.30690520	      0.20000000	     -0.00000000	      0.29353087	      0.12053337
      1.13977214	      7.61334030	     14.55433992	     -0.21805794	     -0.30665205	      0.20000000	     -0.00000000	      0.29374077	      0.12062527
      1.14004014	      7.61715537	     13.91539358	     -0.21814009	     -0.30639780	      0.20000000	     -0.00000000	      0.29395067	      0.12078240
      1.14030815	      7.62079896	     13.27459810	     -0.21822217	     -0.30614239	      0.20000000	     -0.00000000	      0.29416059	      0.12087345
      1.14057616	      7.62427059	     12.63216015	     -0.21830419	     -0.30588589	      0.20000000	     -0.00000000	      0.29437051	      0.12103110
      1.14084416	      7.62756980	     11.98788838	     -0.21838613	     -0.30562821	      0.20000000	     -0.00000000	      0.29458044	      0.12112183
      1.14111217	      7.63069611	     11.34199217	     -0.21846801	     -0.30536945	      0.20000000	     -0.00000000	      0.29479038	      0.12127943
